<?xml version="1.0" encoding="UTF-8"?>
<svg width="68px" height="68px" viewBox="0 0 68 68" version="1.1" xmlns="http://www.w3.org/2000/svg" xmlns:xlink="http://www.w3.org/1999/xlink">
    <!-- Generator: Sketch 48.2 (47327) - http://www.bohemiancoding.com/sketch -->
    <title>icon-insta</title>
    <desc>Created with Sketch.</desc>
    <defs>
        <radialGradient cx="26.9990802%" cy="88.3157169%" fx="26.9990802%" fy="88.3157169%" r="99.7533349%" id="radialGradient-1">
            <stop stop-color="#FCAC44" offset="0%"></stop>
            <stop stop-color="#E55352" offset="24.8101644%"></stop>
            <stop stop-color="#C5317D" offset="55.351779%"></stop>
            <stop stop-color="#8C32BA" offset="77.4193548%"></stop>
            <stop stop-color="#4A64D9" offset="100%"></stop>
        </radialGradient>
    </defs>
    <g id="Page-1" stroke="none" stroke-width="1" fill="none" fill-rule="evenodd">
        <g id="icon-insta">
            <circle id="Oval" fill="#FFFFFF" cx="34.5" cy="34.5" r="31.5"></circle>
            <path d="M34,0 C15.2622222,0 0,15.2622222 0,34 C0,52.7377778 15.2622222,68 34,68 C52.7377778,68 68,52.7377778 68,34 C68,15.2622222 52.7377778,0 34,0 Z M53.3422222,30.0711111 L53.3422222,45.8622222 C53.3422222,49.9422222 50.0177778,53.3422222 45.8622222,53.3422222 L22.1377778,53.3422222 C18.0577778,53.3422222 14.6577778,50.0177778 14.6577778,45.8622222 L14.6577778,22.1377778 C14.6577778,18.0577778 17.9822222,14.6577778 22.1377778,14.6577778 L45.8622222,14.6577778 C49.9422222,14.6577778 53.3422222,17.9822222 53.3422222,22.1377778 L53.3422222,30.0711111 Z M44.6533333,34 C44.6533333,39.8177778 39.9688889,44.5777778 34.0755556,44.5777778 C28.2577778,44.5777778 23.4977778,39.8933333 23.4977778,34 C23.4977778,32.64 23.8,31.2044444 24.2533333,30.0711111 L18.5111111,30.0711111 L18.5111111,45.8622222 C18.5111111,47.9022222 20.1733333,49.5644444 22.2133333,49.5644444 L45.9377778,49.5644444 C47.9777778,49.5644444 49.64,47.9022222 49.64,45.8622222 L49.64,30.0711111 L43.8222222,30.0711111 C44.3511111,31.2044444 44.6533333,32.64 44.6533333,34 Z M34,40.8 C37.7777778,40.8 40.8,37.7777778 40.8,34 C40.8,32.5644444 40.3466667,31.1288889 39.5155556,30.0711111 C38.2311111,28.3333333 36.2666667,27.2 34,27.2 C31.7333333,27.2 29.6933333,28.3333333 28.4844444,30.0711111 C27.6533333,31.2044444 27.2,32.5644444 27.2,34 C27.2,37.7777778 30.2222222,40.8 34,40.8 Z M48.8844444,25.6888889 L48.8844444,19.1155556 L42.3111111,19.1155556 L42.3111111,25.6888889 L48.8844444,25.6888889 Z" id="Shape" fill="url(#radialGradient-1)" fill-rule="nonzero"></path>
        </g>
    </g>
</svg>